<?xml version="1.0" encoding="utf-8"?>
<!-- Generator: Adobe Illustrator 28.0.0, SVG Export Plug-In . SVG Version: 6.00 Build 0)  -->
<svg version="1.1" xmlns="http://www.w3.org/2000/svg" xmlns:xlink="http://www.w3.org/1999/xlink" x="0px" y="0px"
	 viewBox="0 0 165 123.4" style="enable-background:new 0 0 165 123.4;" xml:space="preserve">
<style type="text/css">
	.st0{fill-rule:evenodd;clip-rule:evenodd;fill:#FFFFFF;}
	.st1{opacity:0.36;fill:#E4C072;}
	.st2{fill:#1A150B;}
	.st3{fill:#1A150B;stroke:#000000;stroke-width:0.25;stroke-miterlimit:10;}
</style>
<g id="BACKGROUND">
</g>
<g id="OBJECTS">
	<g>
		<path class="st1" d="M165,123.9H0L0,83C0,37.4,36.9,0.5,82.5,0.5h0C128.1,0.5,165,37.4,165,83V123.9z"/>
		<g>
			<path class="st2" d="M96.4,17.4h-3.8v-6.6H74.9c-23.9,0-43.3,19.4-43.3,43.3v61.6H18.5v4.6H47v-4.6H33.8V54.1
				C33.8,31.4,52.2,13,74.9,13h15.4v4.4h-4.3c-2.7,0-4.9,2.2-4.9,4.9v12.9h20.1V22.3C101.3,19.6,99.1,17.4,96.4,17.4z M99.1,33h-3.4
				v-7.2c0-0.6-0.5-1.1-1.1-1.1l0,0c-0.6,0-1.1,0.5-1.1,1.1V33h-4.4v-7.2c0-0.6-0.5-1.1-1.1-1.1l0,0c-0.6,0-1.1,0.5-1.1,1.1V33h-3.6
				V22.3c0-1.5,1.2-2.7,2.7-2.7h10.3c1.5,0,2.7,1.2,2.7,2.7V33z"/>
			<g>
				<path class="st2" d="M120.4,92.8H75.7c-0.6,0-1.1,0.5-1.1,1.1c0,0.6,0.5,1.1,1.1,1.1h44.7c0.6,0,1.1-0.5,1.1-1.1
					C121.5,93.2,121,92.8,120.4,92.8z"/>
				<path class="st2" d="M143.2,71.3h-12.8c-0.4,0-0.8,0.1-1.2,0.2v-0.6c0-12.3-10-22.3-22.3-22.3H89.2c-12.3,0-22.3,10-22.3,22.3
					v0.6c-0.4-0.1-0.8-0.2-1.2-0.2H52.9c-1.9,0-3.4,1.5-3.4,3.4v3.3c0,1.5,1,2.7,2.3,3.2v33.3c0,0.6,0.5,1.1,1.1,1.1h7.4v4.6H72
					v-4.6h28.9h0.8H125v4.6h11.8v-4.6h6.4c0.6,0,1.1-0.5,1.1-1.1V81.2c1.3-0.5,2.3-1.7,2.3-3.2v-3.3C146.5,72.8,145,71.3,143.2,71.3
					z M51.7,74.7c0-0.7,0.5-1.2,1.2-1.2h12.8c0.6,0,1,0.4,1.2,0.9v3.9c-0.1,0.5-0.6,0.9-1.2,0.9H52.9c-0.7,0-1.2-0.5-1.2-1.2V74.7z
					 M101.6,113.4h-0.8H54v-32h11.7c0.4,0,0.8-0.1,1.2-0.2v20c0,0.6,0.5,1.1,1.1,1.1c0.6,0,1.1-0.5,1.1-1.1V78.5c0-0.1,0-0.3,0-0.4
					v-3.3c0-0.1,0-0.3,0-0.4v-3.4c0-11.1,9-20.2,20.2-20.2h17.6c11.1,0,20.2,9,20.2,20.2v3.8v3.3v23.2c0,0.6,0.5,1.1,1.1,1.1
					c0.6,0,1.1-0.5,1.1-1.1V81.2c0.4,0.1,0.8,0.2,1.2,0.2h11.7v32H101.6z M144.3,78.1c0,0.7-0.5,1.2-1.2,1.2h-12.8
					c-0.7,0-1.2-0.5-1.2-1.2v-3.3c0-0.7,0.5-1.2,1.2-1.2h12.8c0.7,0,1.2,0.5,1.2,1.2V78.1z"/>
				<path class="st2" d="M98,87.3c0.6,0,1.1-0.5,1.1-1.1v-24c0-0.6-0.5-1.1-1.1-1.1c-0.6,0-1.1,0.5-1.1,1.1v24
					C96.9,86.8,97.4,87.3,98,87.3z"/>
				<path class="st2" d="M82.6,87.3c0.6,0,1.1-0.5,1.1-1.1V70.7c0-0.6-0.5-1.1-1.1-1.1c-0.6,0-1.1,0.5-1.1,1.1v15.5
					C81.5,86.8,82,87.3,82.6,87.3z"/>
				<path class="st2" d="M113.4,87.3c0.6,0,1.1-0.5,1.1-1.1V70.7c0-0.6-0.5-1.1-1.1-1.1s-1.1,0.5-1.1,1.1v15.5
					C112.4,86.8,112.8,87.3,113.4,87.3z"/>
			</g>
		</g>
	</g>
</g>
</svg>
